<mxfile host="app.diagrams.net" modified="2021-06-03T00:57:25.402Z" agent="5.0 (Windows NT 10.0; Win64; x64) AppleWebKit/537.36 (KHTML, like Gecko) Chrome/91.0.4472.77 Safari/537.36 Edg/91.0.864.37" etag="d-DR3Fwbmxmk22zm31uK" version="14.7.4" type="github">
  <diagram id="1SOiXfRm62UnU8uGL7iH" name="Page-1">
    <mxGraphModel dx="1038" dy="579" grid="1" gridSize="10" guides="1" tooltips="1" connect="1" arrows="1" fold="1" page="1" pageScale="1" pageWidth="827" pageHeight="1169" math="0" shadow="0">
      <root>
        <mxCell id="0" />
        <mxCell id="1" parent="0" />
        <mxCell id="7pqDrdcPNe8AwhRCznNZ-1" value="" style="ellipse;whiteSpace=wrap;html=1;aspect=fixed;" vertex="1" parent="1">
          <mxGeometry x="120" y="80" width="40" height="40" as="geometry" />
        </mxCell>
        <mxCell id="7pqDrdcPNe8AwhRCznNZ-2" value="" style="endArrow=none;html=1;entryX=0.5;entryY=1;entryDx=0;entryDy=0;exitX=0.5;exitY=0;exitDx=0;exitDy=0;" edge="1" parent="1" source="7pqDrdcPNe8AwhRCznNZ-4" target="7pqDrdcPNe8AwhRCznNZ-1">
          <mxGeometry width="50" height="50" relative="1" as="geometry">
            <mxPoint x="120" y="140" as="sourcePoint" />
            <mxPoint x="150" y="140" as="targetPoint" />
          </mxGeometry>
        </mxCell>
        <mxCell id="7pqDrdcPNe8AwhRCznNZ-4" value="" style="ellipse;whiteSpace=wrap;html=1;aspect=fixed;" vertex="1" parent="1">
          <mxGeometry x="120" y="160" width="40" height="40" as="geometry" />
        </mxCell>
        <mxCell id="7pqDrdcPNe8AwhRCznNZ-5" value="" style="ellipse;whiteSpace=wrap;html=1;aspect=fixed;" vertex="1" parent="1">
          <mxGeometry x="120" y="240" width="40" height="40" as="geometry" />
        </mxCell>
        <mxCell id="7pqDrdcPNe8AwhRCznNZ-6" value="" style="endArrow=none;html=1;entryX=0.5;entryY=1;entryDx=0;entryDy=0;exitX=0.5;exitY=0;exitDx=0;exitDy=0;" edge="1" parent="1">
          <mxGeometry width="50" height="50" relative="1" as="geometry">
            <mxPoint x="139.5" y="240" as="sourcePoint" />
            <mxPoint x="139.5" y="200" as="targetPoint" />
          </mxGeometry>
        </mxCell>
        <mxCell id="7pqDrdcPNe8AwhRCznNZ-7" value="" style="ellipse;whiteSpace=wrap;html=1;aspect=fixed;" vertex="1" parent="1">
          <mxGeometry x="240" y="80" width="40" height="40" as="geometry" />
        </mxCell>
        <mxCell id="7pqDrdcPNe8AwhRCznNZ-8" value="" style="endArrow=none;html=1;entryX=0.5;entryY=1;entryDx=0;entryDy=0;exitX=0.5;exitY=0;exitDx=0;exitDy=0;" edge="1" parent="1" source="7pqDrdcPNe8AwhRCznNZ-9" target="7pqDrdcPNe8AwhRCznNZ-7">
          <mxGeometry width="50" height="50" relative="1" as="geometry">
            <mxPoint x="219.5" y="220" as="sourcePoint" />
            <mxPoint x="219.5" y="180" as="targetPoint" />
          </mxGeometry>
        </mxCell>
        <mxCell id="7pqDrdcPNe8AwhRCznNZ-9" value="" style="ellipse;whiteSpace=wrap;html=1;aspect=fixed;" vertex="1" parent="1">
          <mxGeometry x="200" y="200" width="40" height="40" as="geometry" />
        </mxCell>
        <mxCell id="7pqDrdcPNe8AwhRCznNZ-13" value="" style="ellipse;whiteSpace=wrap;html=1;aspect=fixed;" vertex="1" parent="1">
          <mxGeometry x="280" y="200" width="40" height="40" as="geometry" />
        </mxCell>
        <mxCell id="7pqDrdcPNe8AwhRCznNZ-14" value="" style="endArrow=none;html=1;entryX=0.5;entryY=1;entryDx=0;entryDy=0;exitX=0.35;exitY=-0.005;exitDx=0;exitDy=0;exitPerimeter=0;" edge="1" parent="1" source="7pqDrdcPNe8AwhRCznNZ-13" target="7pqDrdcPNe8AwhRCznNZ-7">
          <mxGeometry width="50" height="50" relative="1" as="geometry">
            <mxPoint x="200" y="230" as="sourcePoint" />
            <mxPoint x="229.5" y="190" as="targetPoint" />
          </mxGeometry>
        </mxCell>
        <mxCell id="7pqDrdcPNe8AwhRCznNZ-16" value="" style="ellipse;whiteSpace=wrap;html=1;aspect=fixed;" vertex="1" parent="1">
          <mxGeometry x="400" y="80" width="40" height="40" as="geometry" />
        </mxCell>
        <mxCell id="7pqDrdcPNe8AwhRCznNZ-17" value="" style="endArrow=none;html=1;entryX=0.5;entryY=1;entryDx=0;entryDy=0;exitX=0.5;exitY=0;exitDx=0;exitDy=0;" edge="1" parent="1" source="7pqDrdcPNe8AwhRCznNZ-18" target="7pqDrdcPNe8AwhRCznNZ-16">
          <mxGeometry width="50" height="50" relative="1" as="geometry">
            <mxPoint x="420" y="260" as="sourcePoint" />
            <mxPoint x="470" y="210" as="targetPoint" />
          </mxGeometry>
        </mxCell>
        <mxCell id="7pqDrdcPNe8AwhRCznNZ-18" value="" style="ellipse;whiteSpace=wrap;html=1;aspect=fixed;" vertex="1" parent="1">
          <mxGeometry x="360" y="160" width="40" height="40" as="geometry" />
        </mxCell>
        <mxCell id="7pqDrdcPNe8AwhRCznNZ-19" value="" style="ellipse;whiteSpace=wrap;html=1;aspect=fixed;" vertex="1" parent="1">
          <mxGeometry x="400" y="240" width="40" height="40" as="geometry" />
        </mxCell>
        <mxCell id="7pqDrdcPNe8AwhRCznNZ-20" value="" style="endArrow=none;html=1;entryX=0.5;entryY=1;entryDx=0;entryDy=0;exitX=0;exitY=0;exitDx=0;exitDy=0;" edge="1" parent="1" source="7pqDrdcPNe8AwhRCznNZ-19" target="7pqDrdcPNe8AwhRCznNZ-18">
          <mxGeometry width="50" height="50" relative="1" as="geometry">
            <mxPoint x="404.14213562373106" y="175.85786437626894" as="sourcePoint" />
            <mxPoint x="430" y="130" as="targetPoint" />
          </mxGeometry>
        </mxCell>
        <mxCell id="7pqDrdcPNe8AwhRCznNZ-21" value="" style="ellipse;whiteSpace=wrap;html=1;aspect=fixed;" vertex="1" parent="1">
          <mxGeometry x="520" y="80" width="40" height="40" as="geometry" />
        </mxCell>
        <mxCell id="7pqDrdcPNe8AwhRCznNZ-22" value="" style="ellipse;whiteSpace=wrap;html=1;aspect=fixed;" vertex="1" parent="1">
          <mxGeometry x="560" y="160" width="40" height="40" as="geometry" />
        </mxCell>
        <mxCell id="7pqDrdcPNe8AwhRCznNZ-23" value="" style="ellipse;whiteSpace=wrap;html=1;aspect=fixed;" vertex="1" parent="1">
          <mxGeometry x="520" y="240" width="40" height="40" as="geometry" />
        </mxCell>
        <mxCell id="7pqDrdcPNe8AwhRCznNZ-24" value="" style="endArrow=none;html=1;entryX=0.5;entryY=1;entryDx=0;entryDy=0;exitX=0.5;exitY=0;exitDx=0;exitDy=0;" edge="1" parent="1" source="7pqDrdcPNe8AwhRCznNZ-22" target="7pqDrdcPNe8AwhRCznNZ-21">
          <mxGeometry width="50" height="50" relative="1" as="geometry">
            <mxPoint x="390" y="170" as="sourcePoint" />
            <mxPoint x="430" y="130" as="targetPoint" />
          </mxGeometry>
        </mxCell>
        <mxCell id="7pqDrdcPNe8AwhRCznNZ-25" value="" style="endArrow=none;html=1;exitX=1;exitY=0;exitDx=0;exitDy=0;entryX=0.5;entryY=1;entryDx=0;entryDy=0;" edge="1" parent="1" source="7pqDrdcPNe8AwhRCznNZ-23" target="7pqDrdcPNe8AwhRCznNZ-22">
          <mxGeometry width="50" height="50" relative="1" as="geometry">
            <mxPoint x="415.85786437626894" y="255.85786437626894" as="sourcePoint" />
            <mxPoint x="470" y="200" as="targetPoint" />
          </mxGeometry>
        </mxCell>
        <mxCell id="7pqDrdcPNe8AwhRCznNZ-26" value="" style="ellipse;whiteSpace=wrap;html=1;aspect=fixed;" vertex="1" parent="1">
          <mxGeometry x="420" y="320" width="40" height="40" as="geometry" />
        </mxCell>
        <mxCell id="7pqDrdcPNe8AwhRCznNZ-27" value="" style="ellipse;whiteSpace=wrap;html=1;aspect=fixed;" vertex="1" parent="1">
          <mxGeometry x="360" y="400" width="40" height="40" as="geometry" />
        </mxCell>
        <mxCell id="7pqDrdcPNe8AwhRCznNZ-28" value="" style="ellipse;whiteSpace=wrap;html=1;aspect=fixed;" vertex="1" parent="1">
          <mxGeometry x="290" y="480" width="40" height="40" as="geometry" />
        </mxCell>
        <mxCell id="7pqDrdcPNe8AwhRCznNZ-29" value="" style="endArrow=none;html=1;entryX=0;entryY=1;entryDx=0;entryDy=0;" edge="1" parent="1" source="7pqDrdcPNe8AwhRCznNZ-27" target="7pqDrdcPNe8AwhRCznNZ-26">
          <mxGeometry width="50" height="50" relative="1" as="geometry">
            <mxPoint x="320" y="330" as="sourcePoint" />
            <mxPoint x="360" y="290" as="targetPoint" />
          </mxGeometry>
        </mxCell>
        <mxCell id="7pqDrdcPNe8AwhRCznNZ-30" value="" style="endArrow=none;html=1;exitX=0;exitY=1;exitDx=0;exitDy=0;entryX=1;entryY=0;entryDx=0;entryDy=0;" edge="1" parent="1" source="7pqDrdcPNe8AwhRCznNZ-27" target="7pqDrdcPNe8AwhRCznNZ-28">
          <mxGeometry width="50" height="50" relative="1" as="geometry">
            <mxPoint x="400.2899151085621" y="412.85014148572964" as="sourcePoint" />
            <mxPoint x="380" y="470" as="targetPoint" />
          </mxGeometry>
        </mxCell>
        <mxCell id="7pqDrdcPNe8AwhRCznNZ-31" value="" style="ellipse;whiteSpace=wrap;html=1;aspect=fixed;" vertex="1" parent="1">
          <mxGeometry x="510" y="320" width="40" height="40" as="geometry" />
        </mxCell>
        <mxCell id="7pqDrdcPNe8AwhRCznNZ-32" value="" style="ellipse;whiteSpace=wrap;html=1;aspect=fixed;" vertex="1" parent="1">
          <mxGeometry x="580" y="400" width="40" height="40" as="geometry" />
        </mxCell>
        <mxCell id="7pqDrdcPNe8AwhRCznNZ-33" value="" style="ellipse;whiteSpace=wrap;html=1;aspect=fixed;" vertex="1" parent="1">
          <mxGeometry x="650" y="480" width="40" height="40" as="geometry" />
        </mxCell>
        <mxCell id="7pqDrdcPNe8AwhRCznNZ-34" value="" style="endArrow=none;html=1;entryX=1;entryY=1;entryDx=0;entryDy=0;" edge="1" parent="1" source="7pqDrdcPNe8AwhRCznNZ-32" target="7pqDrdcPNe8AwhRCznNZ-31">
          <mxGeometry width="50" height="50" relative="1" as="geometry">
            <mxPoint x="485" y="330" as="sourcePoint" />
            <mxPoint x="525" y="290" as="targetPoint" />
          </mxGeometry>
        </mxCell>
        <mxCell id="7pqDrdcPNe8AwhRCznNZ-35" value="" style="endArrow=none;html=1;exitX=1;exitY=1;exitDx=0;exitDy=0;entryX=0;entryY=0;entryDx=0;entryDy=0;" edge="1" parent="1" source="7pqDrdcPNe8AwhRCznNZ-32" target="7pqDrdcPNe8AwhRCznNZ-33">
          <mxGeometry width="50" height="50" relative="1" as="geometry">
            <mxPoint x="565.2899151085621" y="412.85014148572964" as="sourcePoint" />
            <mxPoint x="545" y="470" as="targetPoint" />
          </mxGeometry>
        </mxCell>
        <mxCell id="7pqDrdcPNe8AwhRCznNZ-36" value="" style="ellipse;whiteSpace=wrap;html=1;aspect=fixed;" vertex="1" parent="1">
          <mxGeometry x="470" y="490" width="40" height="40" as="geometry" />
        </mxCell>
        <mxCell id="7pqDrdcPNe8AwhRCznNZ-37" value="" style="endArrow=none;html=1;entryX=0.5;entryY=1;entryDx=0;entryDy=0;exitX=0.5;exitY=0;exitDx=0;exitDy=0;" edge="1" parent="1" source="7pqDrdcPNe8AwhRCznNZ-38" target="7pqDrdcPNe8AwhRCznNZ-36">
          <mxGeometry width="50" height="50" relative="1" as="geometry">
            <mxPoint x="449.5" y="630" as="sourcePoint" />
            <mxPoint x="449.5" y="590" as="targetPoint" />
          </mxGeometry>
        </mxCell>
        <mxCell id="7pqDrdcPNe8AwhRCznNZ-38" value="" style="ellipse;whiteSpace=wrap;html=1;aspect=fixed;" vertex="1" parent="1">
          <mxGeometry x="430" y="610" width="40" height="40" as="geometry" />
        </mxCell>
        <mxCell id="7pqDrdcPNe8AwhRCznNZ-39" value="" style="ellipse;whiteSpace=wrap;html=1;aspect=fixed;" vertex="1" parent="1">
          <mxGeometry x="510" y="610" width="40" height="40" as="geometry" />
        </mxCell>
        <mxCell id="7pqDrdcPNe8AwhRCznNZ-40" value="" style="endArrow=none;html=1;entryX=0.5;entryY=1;entryDx=0;entryDy=0;exitX=0.35;exitY=-0.005;exitDx=0;exitDy=0;exitPerimeter=0;" edge="1" parent="1" source="7pqDrdcPNe8AwhRCznNZ-39" target="7pqDrdcPNe8AwhRCznNZ-36">
          <mxGeometry width="50" height="50" relative="1" as="geometry">
            <mxPoint x="430" y="640" as="sourcePoint" />
            <mxPoint x="459.5" y="600" as="targetPoint" />
          </mxGeometry>
        </mxCell>
      </root>
    </mxGraphModel>
  </diagram>
</mxfile>
